HIERARCHY
ROOT reference
{
  OFFSET 0 0 0
  CHANNELS 6 Xposition Yposition Zposition Zrotation Xrotation Yrotation
  JOINT Hips
  {
    OFFSET 0 97.8064 0
    CHANNELS 6 Xposition Yposition Zposition Zrotation Xrotation Yrotation
    JOINT ToSpine
    {
      OFFSET -2.69724 7.43032 -0.144315
      CHANNELS 6 Xposition Yposition Zposition Zrotation Xrotation Yrotation
      JOINT Spine
      {
        OFFSET -0.0310711 10.7595 1.96963
        CHANNELS 6 Xposition Yposition Zposition Zrotation Xrotation Yrotation
        JOINT Spine1
        {
          OFFSET 13.1342 3.43533 0.764692
          CHANNELS 6 Xposition Yposition Zposition Zrotation Xrotation Yrotation
          JOINT Neck
          {
            OFFSET 29.8703 7.82586 -0.130764
            CHANNELS 6 Xposition Yposition Zposition Zrotation Xrotation Yrotation
            JOINT Head
            {
              OFFSET 9.52751 0.295786 -0.907742
              CHANNELS 6 Xposition Yposition Zposition Zrotation Xrotation Yrotation
              End Site
              {
                OFFSET 16.4037 0.713936 2.7358
              }
            }
          }
          JOINT LeftShoulder
          {
            OFFSET 27.5574 4.95586 2.47156
            CHANNELS 6 Xposition Yposition Zposition Zrotation Xrotation Yrotation
            JOINT LeftArm
            {
              OFFSET 1.20734 -0.998971 20.1238
              CHANNELS 6 Xposition Yposition Zposition Zrotation Xrotation Yrotation
              JOINT LeftForeArm
              {
                OFFSET 26.8049 -0.0536703 -0.155908
                CHANNELS 6 Xposition Yposition Zposition Zrotation Xrotation Yrotation
                JOINT LeftHand
                {
                  OFFSET 26.6817 0 0.320147
                  CHANNELS 6 Xposition Yposition Zposition Zrotation Xrotation Yrotation
                  End Site
                  {
                    OFFSET 18.6119 0 0.382219
                  }
                }
              }
            }
          }
          JOINT RightShoulder
          {
            OFFSET 27.5927 4.71444 -2.65209
            CHANNELS 6 Xposition Yposition Zposition Zrotation Xrotation Yrotation
            JOINT RightArm
            {
              OFFSET 2.83739 -1.17114 -18.7564
              CHANNELS 6 Xposition Yposition Zposition Zrotation Xrotation Yrotation
              JOINT RightForeArm
              {
                OFFSET 28.839 -0.0548439 1.22491
                CHANNELS 6 Xposition Yposition Zposition Zrotation Xrotation Yrotation
                JOINT RightHand
                {
                  OFFSET 26.5114 0 -0.101894
                  CHANNELS 6 Xposition Yposition Zposition Zrotation Xrotation Yrotation
                  End Site
                  {
                    OFFSET 18.2168 0 0
                  }
                }
              }
            }
          }
        }
      }
    }
    JOINT LeftUpLeg
    {
      OFFSET -4.76168 -1.9167 -10.2353
      CHANNELS 6 Xposition Yposition Zposition Zrotation Xrotation Yrotation
      JOINT LeftLeg
      {
        OFFSET 2.55951 -42.0585 -8.02213
        CHANNELS 6 Xposition Yposition Zposition Zrotation Xrotation Yrotation
        JOINT LeftFoot
        {
          OFFSET 3.16357 -42.5282 -3.95426
          CHANNELS 6 Xposition Yposition Zposition Zrotation Xrotation Yrotation
          JOINT LeftToeBase
          {
            OFFSET 0.346054 -6.02161 12.8035
            CHANNELS 6 Xposition Yposition Zposition Zrotation Xrotation Yrotation
            End Site
            {
              OFFSET 0.134235 -1.35082 5.13018
            }
          }
        }
      }
    }
    JOINT RightUpLeg
    {
      OFFSET -4.94151 -1.41743 10.6446
      CHANNELS 6 Xposition Yposition Zposition Zrotation Xrotation Yrotation
      JOINT RightLeg
      {
        OFFSET -2.56294 -42.0364 -7.94377
        CHANNELS 6 Xposition Yposition Zposition Zrotation Xrotation Yrotation
        JOINT RightFoot
        {
          OFFSET -3.0952 -42.555 -4.02241
          CHANNELS 6 Xposition Yposition Zposition Zrotation Xrotation Yrotation
          JOINT RightToeBase
          {
            OFFSET -0.0828122 -6.13587 12.8035
            CHANNELS 6 Xposition Yposition Zposition Zrotation Xrotation Yrotation
            End Site
            {
              OFFSET -0.131328 -1.35082 5.13018
            }
          }
        }
      }
    }
  }
}
MOTION
Frames:	5
Frame Time:	0.0333333
0 0 0 0 0 -0 0 97.8064 0 -9.21641 -69.4912 -99.4257 -2.69724 7.43032 -0.144315 -70.1915 -6.18407e-015 88.8779 -0.0310711 10.7595 1.96963 64.9783 69.5887 25.2871 13.1342 3.43533 0.764692 4.60351 20.8703 1.40837 29.8703 7.82586 -0.130764 -158.867 19.9774 178.863 9.52751 0.295786 -0.907742 -163.551 59.618 -171.956 27.5574 4.95586 2.47156 3.81932 1.88815 -1.18989 1.20734 -0.998971 20.1238 -90 -2.89528e-014 -90 26.8049 -0.0536703 -0.155908 -2.27865e-008 -1.09882e-007 -6.77748e-008 26.6817 -2.84217e-014 0.320147 -4.83776e-016 2.19066e-016 -1.61484e-015 27.5927 4.71444 -2.65209 2.06088 1.77022 3.86625 2.83739 -1.17114 -18.7564 -88.2385 5 88.8941 28.839 -0.0548439 1.22491 1.27948e-006 4.79839e-007 0.0043221 26.5114 0 -0.101894 -1.10621e-012 -4.76474e-009 -0.0296889 -4.76168 -1.9167 -10.2353 -54.5197 2.7833 99.4142 2.55951 -42.0585 -8.02213 -1.21668 19.2657 -6.32176 3.16357 -42.5282 -3.95426 3.72058 -5.93042 -0.842831 0.346054 -6.02161 12.8035 0.207147 -0.61891 0.346907 -4.94151 -1.41743 10.6446 -55.5919 -0.189965 81.4537 -2.56294 -42.0364 -7.94377 1.38344 13.6714 6.74024 -3.0952 -42.555 -4.02241 -6.15803 -1.03764 0.970027 -0.0828122 -6.13587 12.8035 1.52296 -4.82373 -7.85573 
0 0 0 0 0 -0 2.07196 95.7796 -10.3089 69.6876 -33.0859 -11.634 -2.69724 7.43032 -0.144315 -70.1915 -2.78299e-015 88.8779 -0.0310711 10.7595 1.96963 63.3414 71.5377 16.0885 13.1342 3.43533 0.764692 3.11179 20.6239 6.72355 29.8703 7.82586 -0.130764 -124.798 35.8593 161.617 9.52751 0.295786 -0.907742 159.222 76.5726 -134.222 27.5574 4.95586 2.47156 0.886708 -11.6968 -20.0964 1.20734 -0.998971 20.1238 -67.1078 38.1045 -141.322 26.8049 -0.0536703 -0.155908 19.7358 -6.12478 -105.773 26.6817 -1.42109e-014 0.320147 -6.36111e-015 1.59028e-015 -0 27.5927 4.71444 -2.65209 -1.56501 6.70253 37.884 2.83739 -1.17114 -18.7564 -130.075 -12.5363 80.9924 28.839 -0.0548439 1.22491 15.9002 -0.54194 87.9079 26.5114 2.84217e-014 -0.101894 -1.10011e-012 -4.76474e-009 -0.0296889 -4.76168 -1.9167 -10.2353 -55.1384 7.96773 97.4645 2.55951 -42.0585 -8.02213 -0.620626 30.0786 -8.8817 3.16357 -42.5282 -3.95426 2.61517 -8.70942 -0.916462 0.346054 -6.02161 12.8035 3.16727 -8.87912 8.95264 -4.94151 -1.41743 10.6446 -49.2925 -11.3907 79.4207 -2.56294 -42.0364 -7.94377 1.30164 21.3456 -1.10272 -3.0952 -42.555 -4.02241 -4.96783 2.38886 0.709415 -0.0828122 -6.13587 12.8035 1.02271 -6.88986 -1.92523 
0 0 0 0 0 -0 4.97235 95.8159 -10.3098 69.6697 -33.1501 -11.6706 -2.69724 7.43032 -0.144315 -70.1915 -1.19271e-014 88.8779 -0.0310711 10.7595 1.96963 62.6797 71.2908 17.1613 13.1342 3.43533 0.764692 3.64568 20.7075 5.94097 29.8703 7.82586 -0.130764 -124.458 35.6419 161.578 9.52751 0.295786 -0.907742 157.985 76.1744 -132.657 27.5574 4.95586 2.47156 0.889694 -11.6856 -19.9602 1.20734 -0.998971 20.1238 -66.9699 38.5414 -140.534 26.8049 -0.0536703 -0.155908 19.9831 -6.18732 -105.721 26.6817 -2.84217e-014 0.320147 6.36111e-015 -1.59028e-015 -6.36111e-015 27.5927 4.71444 -2.65209 -1.61215 6.89805 37.8579 2.83739 -1.17114 -18.7564 -130.037 -12.8305 80.6532 28.839 -0.0548439 1.22491 15.8565 -0.493281 88.0659 26.5114 2.84217e-014 -0.101894 -1.10448e-012 -4.76475e-009 -0.0296889 -4.76168 -1.9167 -10.2353 -55.2297 7.99547 97.5685 2.55951 -42.0585 -8.02213 -0.570476 29.9302 -8.52437 3.16357 -42.5282 -3.95426 1.39232 -9.48206 -0.902711 0.346054 -6.02161 12.8035 2.52418 -7.61389 8.32647 -4.94151 -1.41743 10.6446 -49.2242 -11.3944 79.3963 -2.56294 -42.0364 -7.94377 1.32843 21.6208 -0.955991 -3.0952 -42.555 -4.02241 -5.37665 2.65652 0.7629 -0.0828122 -6.13587 12.8035 1.10814 -7.40573 -2.2328 
0 0 0 0 0 -0 4.97055 95.8494 -10.2651 69.6732 -33.0435 -11.7144 -2.69724 7.43032 -0.144315 -70.1915 -2.5842e-015 88.8779 -0.0310711 10.7595 1.96963 62.8511 71.285 16.9019 13.1342 3.43533 0.764692 3.41054 20.6832 5.88291 29.8703 7.82586 -0.130764 -124.207 35.52 161.307 9.52751 0.295786 -0.907742 158.438 76.2012 -133.024 27.5574 4.95586 2.47156 0.877097 -11.8209 -19.868 1.20734 -0.998971 20.1238 -66.8382 38.6118 -140.488 26.8049 -0.0536703 -0.155908 20.0391 -6.20587 -105.719 26.6817 -4.26326e-014 0.320147 0 3.18055e-015 -0 27.5927 4.71444 -2.65209 -1.63042 6.94407 37.9539 2.83739 -1.17114 -18.7564 -130.143 -12.7692 80.3944 28.839 -0.0548439 1.22491 16.9115 -0.502043 88.147 26.5114 4.26326e-014 -0.101894 -1.10408e-012 -4.76474e-009 -0.0296889 -4.76168 -1.9167 -10.2353 -55.2164 7.93116 97.638 2.55951 -42.0585 -8.02213 -0.462035 29.8776 -8.93632 3.16357 -42.5282 -3.95426 1.3278 -9.55436 -0.90593 0.346054 -6.02161 12.8035 2.34045 -7.34187 8.56043 -4.94151 -1.41743 10.6446 -49.3548 -11.4928 79.3362 -2.56294 -42.0364 -7.94377 1.40878 21.3774 -0.846361 -3.0952 -42.555 -4.02241 -5.75348 2.86247 0.814643 -0.0828122 -6.13587 12.8035 1.16584 -7.81508 -2.39376 
0 0 0 0 0 -0 4.98862 95.8456 -10.2665 69.6965 -33.0455 -11.7316 -2.69724 7.43032 -0.144315 -70.1915 -1.98785e-015 88.8779 -0.0310711 10.7595 1.96963 62.9006 71.3357 16.817 13.1342 3.43533 0.764692 3.31428 20.7114 5.9629 29.8703 7.82586 -0.130764 -124.163 35.5263 161.17 9.52751 0.295786 -0.907742 158.821 76.3092 -133.445 27.5574 4.95586 2.47156 0.865689 -11.9241 -19.9183 1.20734 -0.998971 20.1238 -66.817 38.5763 -140.426 26.8049 -0.0536703 -0.155908 20.0603 -6.21475 -105.719 26.6817 -2.84217e-014 0.320147 3.18055e-015 3.18055e-015 3.18055e-015 27.5927 4.71444 -2.65209 -1.61232 6.77212 38.3242 2.83739 -1.17114 -18.7564 -130.031 -12.3711 80.7495 28.839 -0.0548439 1.22491 15.6418 -0.465652 88.1362 26.5114 2.84217e-014 -0.101894 -1.10687e-012 -4.76474e-009 -0.0296889 -4.76168 -1.9167 -10.2353 -55.4575 7.89103 97.8396 2.55951 -42.0585 -8.02213 -0.411667 29.4806 -9.08514 3.16357 -42.5282 -3.95426 2.19423 -9.26769 -0.926902 0.346054 -6.02161 12.8035 2.49121 -7.58361 8.44815 -4.94151 -1.41743 10.6446 -49.3053 -11.5241 79.3565 -2.56294 -42.0364 -7.94377 1.33864 21.5231 -0.960959 -3.0952 -42.555 -4.02241 -5.36226 2.61142 0.761823 -0.0828122 -6.13587 12.8035 1.08274 -7.39852 -1.98587 
